<?xml version="1.0" standalone="no"?>
<!DOCTYPE svg PUBLIC "-//W3C//DTD SVG 20010904//EN"
 "http://www.w3.org/TR/2001/REC-SVG-20010904/DTD/svg10.dtd">
<svg version="1.0" xmlns="http://www.w3.org/2000/svg"
 width="300.000000pt" height="300.000000pt" viewBox="0 0 300.000000 300.000000"
 preserveAspectRatio="xMidYMid meet">
<metadata>
Created by potrace 1.11, written by Peter Selinger 2001-2013
</metadata>
<g transform="translate(0.000000,300.000000) scale(0.100000,-0.100000)"
fill="#000000" stroke="none">
<path d="M1340 2495 c-59 -19 -148 -90 -188 -150 -69 -104 -97 -238 -69 -328
l15 -48 -50 -52 c-64 -66 -101 -121 -140 -202 -16 -36 -33 -65 -37 -65 -4 0
-14 -12 -23 -27 -14 -26 -15 -48 -6 -113 3 -14 2 -29 0 -34 -10 -19 -2 -146
13 -220 52 -250 215 -368 505 -367 l105 1 2 -173 2 -172 -46 -22 c-42 -20 -49
-20 -74 -7 -43 22 -110 18 -150 -9 -87 -59 -113 -211 -47 -283 17 -19 17 -23
2 -59 -8 -21 -16 -66 -17 -99 l-2 -61 63 -3 c62 -3 62 -3 63 25 1 41 6 64 17
75 7 7 9 -10 8 -46 l-2 -56 342 0 c379 0 353 -5 349 67 -2 46 13 30 21 -22 l6
-45 68 0 c64 0 69 2 72 22 5 33 -18 114 -42 154 l-22 34 23 46 c53 110 15 242
-83 293 -41 21 -114 20 -159 -2 -37 -18 -41 -18 -73 -3 -19 9 -48 19 -64 22
-31 6 -30 4 -48 103 -3 13 -6 77 -8 142 l-4 119 55 25 c206 94 321 254 326
452 6 200 -96 447 -240 585 -45 43 -143 104 -182 113 -28 6 -28 6 -16 53 19
72 10 166 -20 229 -31 63 -73 98 -135 112 -55 13 -55 13 -110 -4z"/>
</g>
</svg>
